<mxfile host="app.diagrams.net" modified="2023-11-29T13:12:54.534Z" agent="Mozilla/5.0 (X11; Linux x86_64) AppleWebKit/537.36 (KHTML, like Gecko) Chrome/118.0.0.0 Safari/537.36" version="22.1.4" etag="mUPHUWINkxFrUeZczRJP" type="github">
  <diagram name="Page-1" id="y8Ocuzan0bpPL9cwA2wn">
    <mxGraphModel>
      <root>
        <mxCell id="0" />
        <mxCell id="1" parent="0" />
      </root>
    </mxGraphModel>
  </diagram>
</mxfile>
